<?xml version="1.0" standalone="no"?><!DOCTYPE svg PUBLIC "-//W3C//DTD SVG 1.1//EN" "http://www.w3.org/Graphics/SVG/1.1/DTD/svg11.dtd"><svg t="1774690839568" class="icon" viewBox="0 0 1024 1024" version="1.1" xmlns="http://www.w3.org/2000/svg" p-id="7553" xmlns:xlink="http://www.w3.org/1999/xlink" width="200" height="200"><path d="M1022.39232 499.47648c0 10.28096 0 30.8224-10.27072 41.09312L508.79488 1023.35488l-493.056-493.056c-20.55168-20.54144-20.55168-51.36384 0-71.90528 20.5312-20.54144 51.3536-20.54144 71.89504 0l421.16096 421.15072 421.15072-421.15072c20.54144-20.54144 51.36384-20.54144 71.90528 0 10.27072 10.27072 20.54144 20.54144 20.54144 41.08288z" fill="#666767" p-id="7554"></path><path d="M1022.39232 59.15648c0 10.28096 0 30.8224-10.27072 41.09312L508.79488 583.03488 15.73888 89.97888C-4.8128 69.4272-4.8128 38.6048 15.72864 18.0736c20.5312-20.54144 51.3536-20.54144 71.89504 0l421.16096 421.15072L929.9456 18.0736c20.54144-20.54144 51.36384-20.54144 71.90528 0 10.27072 10.27072 20.54144 20.54144 20.54144 41.08288z" fill="#666767" p-id="7555"></path></svg>